<?xml version="1.0" encoding="UTF-8"?>
<!DOCTYPE svg PUBLIC "-//W3C//DTD SVG 1.1//EN" "http://www.w3.org/Graphics/SVG/1.1/DTD/svg11.dtd">
<!-- Creator: CorelDRAW -->
<svg xmlns="http://www.w3.org/2000/svg" xml:space="preserve" width="1.70666in" height="1.70666in" version="1.1" style="shape-rendering:geometricPrecision; text-rendering:geometricPrecision; image-rendering:optimizeQuality; fill-rule:evenodd; clip-rule:evenodd"
viewBox="0 0 1707 1707"
 xmlns:xlink="http://www.w3.org/1999/xlink">
 <defs>
  <style type="text/css">
   <![CDATA[
    .fil0 {fill:#000002}
   ]]>
  </style>
 </defs>
 <g id="Layer_x0020_1">
  <metadata id="CorelCorpID_0Corel-Layer"/>
  <path class="fil0" d="M630 1569l-483 0c-57,0 -102,-46 -102,-102l0 -760c0,-56 45,-102 102,-102l44 0 0 -182c0,-278 232,-423 460,-423 229,0 461,145 461,423l0 182 41 0c56,0 102,46 102,102l0 571 -425 0c-118,0 -214,96 -214,214 0,27 5,53 14,77zm-359 -964l761 0 0 -182c0,-236 -197,-343 -381,-343 -183,0 -380,107 -380,343l0 182zm775 574c12,0 20,-9 20,-20l0 -367c0,-11 -8,-20 -20,-20 -11,0 -20,9 -20,20l0 367c0,11 9,20 20,20zm-794 257c11,0 20,-8 20,-20l0 -429c0,-11 -9,-20 -20,-20 -11,0 -20,9 -20,20l0 429c0,12 9,20 20,20zm452 -211c11,0 20,-9 20,-20l0 -159 6 -6c25,-23 38,-54 38,-87 0,-66 -53,-119 -118,-119 -66,0 -119,53 -119,119 0,33 14,64 38,87l7 6 0 159c0,11 9,20 20,20l108 0zm-88 -40l0 -150c0,-7 -4,-13 -9,-16 -23,-15 -36,-40 -36,-66 0,-44 35,-79 79,-79 43,0 78,35 78,79 0,26 -13,51 -35,66 -6,3 -9,9 -9,16l0 150 -68 0z"/>
  <path class="fil0" d="M1448 1667c96,0 174,-79 174,-175 0,-96 -78,-174 -174,-174l-618 0c-96,0 -174,78 -174,174 0,96 78,175 174,175l618 0zm50 -107c6,0 11,-2 15,-6 7,-8 7,-21 0,-28l-34 -34 34 -33c7,-8 7,-21 0,-28 -8,-8 -21,-8 -29,0l-13 13 0 -19c0,-11 -9,-20 -20,-20 -11,0 -20,9 -20,20l0 19 -13 -13c-8,-8 -21,-8 -28,0 -8,7 -8,20 0,28l33 33 -33 34c-8,7 -8,20 0,28 3,4 8,6 14,6 5,0 10,-2 14,-6l13 -14 0 19c0,11 9,20 20,20 11,0 20,-9 20,-20l0 -19 13 14c4,4 9,6 14,6zm-208 0c6,0 11,-2 14,-6 8,-8 8,-21 1,-28l-34 -34 34 -33c7,-8 7,-21 0,-28 -8,-8 -21,-8 -29,0l-13 13 0 -19c0,-11 -9,-20 -20,-20 -11,0 -20,9 -20,20l0 19 -13 -13c-8,-8 -21,-8 -29,0 -7,7 -7,20 0,28l34 33 -34 34c-7,7 -7,20 0,28 4,4 9,6 15,6 5,0 10,-2 14,-6l13 -14 0 19c0,11 9,20 20,20 11,0 20,-9 20,-20l0 -19 13 14c4,4 9,6 14,6zm-208 0c6,0 11,-2 14,-6 8,-8 8,-21 0,-28l-33 -34 33 -33c8,-8 8,-21 0,-28 -7,-8 -20,-8 -28,0l-13 13 0 -19c0,-11 -9,-20 -20,-20 -11,0 -20,9 -20,20l0 19 -13 -13c-8,-8 -21,-8 -29,0 -8,7 -8,20 0,28l34 33 -34 34c-8,7 -8,20 0,28 4,4 9,6 14,6 6,0 11,-2 15,-6l13 -14 0 19c0,11 9,20 20,20 11,0 20,-9 20,-20l0 -19 13 14c4,4 9,6 14,6zm-208 0c5,0 10,-2 14,-6 8,-8 8,-21 0,-28l-33 -34 33 -33c8,-8 8,-21 0,-28 -8,-8 -20,-8 -28,0l-13 13 0 -19c0,-11 -9,-20 -20,-20 -11,0 -20,9 -20,20l0 19 -14 -13c-7,-8 -20,-8 -28,0 -8,7 -8,20 0,28l33 33 -33 34c-8,7 -8,20 0,28 4,4 9,6 14,6 6,0 11,-2 14,-6l14 -14 0 19c0,11 9,20 20,20 11,0 20,-9 20,-20l0 -19 13 14c4,4 9,6 14,6z"/>
 </g>
</svg>
