<svg xmlns="http://www.w3.org/2000/svg" xml:space="preserve" width="512px" height="512px" version="1.1" style="shape-rendering:geometricPrecision; text-rendering:geometricPrecision; image-rendering:optimizeQuality; fill-rule:evenodd; clip-rule:evenodd" viewBox="0 0 512 512" xmlns:xlink="http://www.w3.org/1999/xlink">
 <defs>
  <style type="text/css">
   
    .fil0 {fill:black}
   
  </style>
 </defs>
 <g id="Layer_x0020_1">
  <metadata id="CorelCorpID_0Corel-Layer"></metadata>
  <g id="_570681032">
   <g>
    <g>
     <path class="fil0" d="M399 336c-7,0 -15,-3 -21,-9 -3,-3 -3,-7 0,-10 3,-3 7,-3 10,0 6,6 17,6 23,0 5,-6 5,-16 0,-22 -4,-4 -10,-10 -17,-17 -12,-13 -28,-29 -34,-33 -16,-8 -31,-16 -46,-24 -15,-8 -31,-16 -46,-24 0,0 0,0 0,0 -4,-2 -6,-1 -7,-1 -7,2 -13,14 -16,20 -4,9 -12,15 -22,15 -11,1 -23,-4 -29,-13 -6,-9 -6,-19 0,-29 16,-30 48,-77 82,-61 25,11 65,29 71,31 3,-1 9,-4 25,-13l2 -1c4,-2 8,-1 10,2 2,4 1,8 -3,10l-2 1c-25,15 -31,17 -36,14 -9,-3 -53,-23 -73,-32 0,0 0,0 0,0 -25,-11 -55,39 -64,55 -3,6 -3,11 0,15 3,5 9,8 16,7 3,0 8,-1 10,-7 0,0 1,0 1,0 5,-12 12,-24 24,-28 5,-1 11,-1 17,3 16,8 31,16 46,24 15,8 31,16 46,24 0,0 0,0 0,0 8,4 20,17 38,35 6,7 13,13 16,17 1,0 1,0 1,0 10,12 10,30 0,42 0,0 0,0 0,0 -6,6 -14,9 -22,9z" id="id_101" style="fill: rgb(51, 69, 156);"></path>
    </g>
    <g>
     <path class="fil0" d="M161 185c-1,0 -2,0 -3,-1l-27 -14c-4,-1 -5,-6 -3,-9 2,-3 6,-5 9,-3l21 11c10,-20 23,-31 38,-35 22,-5 39,8 40,9 3,2 4,6 2,9 -3,3 -7,4 -10,2 0,-1 -14,-10 -29,-6 -12,3 -23,14 -32,33 0,2 -2,3 -4,4 -1,0 -1,0 -2,0z" id="id_102" style="fill: rgb(55, 73, 161);"></path>
    </g>
    <g>
     <path class="fil0" d="M404 285c-3,0 -5,-1 -6,-3 -2,-4 -1,-8 3,-10l36 -20c3,-2 7,-1 9,3 2,3 1,7 -3,9l-36 20c-1,1 -2,1 -3,1z" id="id_103" style="fill: rgb(59, 76, 163);"></path>
    </g>
    <g>
     <path class="fil0" d="M196 404c-7,0 -13,-2 -18,-7 -5,-5 -7,-11 -7,-17 0,-7 2,-13 7,-18 3,-2 7,-2 10,0 3,3 3,8 0,10 -2,2 -3,5 -3,8 0,3 1,5 3,7 2,2 5,4 8,4 3,0 6,-2 8,-4l24 -24c2,-2 3,-4 3,-7 0,-3 -1,-6 -3,-8 -2,-2 -5,-3 -8,-3 -3,0 -6,1 -8,3 -3,3 -7,3 -10,0 -3,-2 -3,-7 0,-10 5,-4 11,-7 18,-7 7,0 13,3 18,7 5,5 7,11 7,18 0,6 -2,12 -7,17l-24 24c-5,5 -11,7 -18,7z" id="id_104" style="fill: rgb(55, 73, 161);"></path>
    </g>
    <g>
     <path class="fil0" d="M170 379c-6,0 -12,-2 -17,-7 -5,-5 -7,-11 -7,-18 0,-7 2,-13 7,-18l36 -35c10,-9 25,-9 35,0 10,10 10,25 0,35l-36 36c-5,5 -11,7 -18,7zm36 -71c-2,0 -5,1 -7,3l-36 35c-4,4 -4,12 0,16 4,4 11,4 15,0l36 -36c4,-4 4,-11 0,-15 -2,-2 -5,-3 -8,-3z" id="id_105" style="fill: rgb(55, 73, 166);"></path>
    </g>
    <g>
     <path class="fil0" d="M145 353c-6,0 -12,-2 -17,-7 -4,-4 -7,-10 -7,-16 -1,-7 2,-14 7,-19l30 -30c5,-4 11,-7 17,-7 7,0 13,3 18,7 4,5 7,11 7,18 0,6 -2,12 -7,17 -3,3 -7,3 -10,0 -3,-3 -3,-7 0,-10 2,-2 3,-5 3,-7 0,-3 -1,-6 -3,-8 -2,-2 -5,-3 -8,-3 -3,0 -5,1 -7,3l-30 30c-2,2 -4,5 -4,8 1,3 2,5 3,7 0,0 1,0 1,0 2,2 4,3 7,3 3,0 6,-1 8,-3 3,-3 7,-3 10,0 3,3 3,7 0,10 -5,5 -11,7 -18,7z" id="id_106" style="fill: rgb(57, 75, 166);"></path>
    </g>
    <g>
     <path class="fil0" d="M120 328c-7,0 -13,-2 -18,-7 -10,-10 -10,-25 0,-35l10 -10c10,-10 25,-10 35,0 10,10 10,26 0,36 -2,2 -5,3 -7,2 1,2 0,5 -2,7 -5,5 -12,7 -18,7zm10 -45c-3,0 -6,1 -8,3l-10 10c-4,4 -4,11 0,15 4,5 12,5 16,0 2,-2 5,-2 7,-1 -1,-3 0,-6 2,-8 4,-4 4,-12 0,-16 -2,-2 -5,-3 -7,-3z" id="id_107" style="fill: rgb(60, 78, 166);"></path>
    </g>
    <g>
     <path class="fil0" d="M107 299c-1,0 -2,0 -3,-1l-35 -20c-4,-2 -5,-6 -3,-9 2,-4 6,-5 10,-3l35 20c3,2 4,6 2,10 -1,2 -4,3 -6,3z" id="id_108" style="fill: rgb(57, 76, 168);"></path>
    </g>
    <g>
     <path class="fil0" d="M283 415c-8,0 -15,-3 -21,-9l-30 -29c-3,-3 -3,-7 0,-10 3,-3 7,-3 10,0l30 29c0,0 0,0 0,0 6,6 16,6 22,0 6,-6 6,-16 0,-22 -3,-3 -3,-7 0,-10 3,-3 7,-3 10,0 12,12 12,30 0,42 -6,6 -14,9 -21,9z" id="id_109" style="fill: rgb(60, 78, 166);"></path>
    </g>
    <g>
     <path class="fil0" d="M335 403c-8,0 -15,-3 -21,-9l-49 -50c-3,-3 -3,-7 0,-10 3,-2 7,-2 10,0l49 50c6,7 17,7 23,0 6,-6 6,-16 0,-23 -3,-2 -3,-7 0,-10 3,-2 7,-2 10,0 6,6 9,14 9,22 0,8 -3,16 -9,21 -6,6 -13,9 -22,9z" id="id_110" style="fill: rgb(60, 78, 171);"></path>
    </g>
    <g>
     <path class="fil0" d="M377 380c-7,0 -15,-3 -21,-9l-59 -59c-3,-3 -3,-7 0,-10 3,-3 7,-3 10,0l59 59c6,6 17,6 23,0 6,-6 6,-17 0,-23l-59 -59c-3,-3 -3,-7 0,-10 3,-3 7,-3 10,0l59 59c12,12 12,31 0,43 -6,6 -14,9 -22,9z" id="id_111" style="fill: rgb(62, 80, 171);"></path>
    </g>
    <g>
     <path class="fil0" d="M454 280c-7,0 -13,-4 -16,-11l-70 -121c-3,-4 -4,-9 -3,-14 1,-5 5,-10 10,-12l38 -22c5,-3 10,-4 15,-2 5,1 9,4 11,9l70 121c3,5 4,10 2,15 -1,5 -4,9 -9,11l-38 23c-1,0 -1,0 -1,0 -3,2 -6,3 -9,3zm-31 -169c0,0 -1,0 -2,1 0,0 0,0 -1,0l-39 22c0,0 0,0 0,0 -1,1 -2,2 -2,3 0,1 0,2 1,3 0,0 0,0 0,1l70 122c0,0 0,0 0,0 2,3 5,3 7,2l39 -23c0,0 0,0 0,0 1,-1 2,-1 2,-2 0,-1 0,-3 -1,-4 0,0 0,0 0,0l-70 -122c0,0 0,0 0,-1 -1,-1 -1,-1 -2,-2 -1,0 -1,0 -2,0zm-45 17l0 0 0 0z" id="id_112" style="fill: rgb(64, 81, 166);"></path>
    </g>
    <g>
     <path class="fil0" d="M58 293c-3,0 -6,-1 -9,-3 0,0 -1,0 -1,0l-38 -23c-5,-2 -9,-6 -10,-12 -1,-4 0,-9 3,-13l70 -122c0,0 0,0 0,0 5,-9 16,-12 25,-7 0,0 0,0 1,0l38 23c5,2 9,7 10,12 1,4 0,9 -3,13l-70 123c0,0 0,0 0,0 -3,5 -10,9 -16,9zm10 -13l0 0 0 0zm-13 -2c3,1 6,0 7,-1l70 -123c0,-1 0,-1 1,-1 0,-1 0,-1 0,-2 0,-1 -1,-2 -2,-3 0,0 -1,0 -1,0l-38 -23c-3,-1 -6,0 -7,2l-70 123c0,0 0,0 -1,1 0,0 0,1 0,1 0,1 1,2 2,3 0,0 1,0 1,0l38 23z" id="id_113" style="fill: rgb(66, 83, 166);"></path>
    </g>
   </g>
  </g>
 </g>
</svg>